<svg width="1200" height="800" viewBox="0 0 1200 800" fill="none" xmlns="http://www.w3.org/2000/svg">
  <defs>
    <linearGradient id="sky" x1="0" y1="0" x2="0" y2="1">
      <stop offset="0%" stop-color="#5FC6FF"/>
      <stop offset="100%" stop-color="#EAF9FF"/>
    </linearGradient>
    <linearGradient id="hill" x1="0" y1="0" x2="1" y2="1">
      <stop offset="0%" stop-color="#39A96B"/>
      <stop offset="100%" stop-color="#1E5D3A"/>
    </linearGradient>
  </defs>
  <rect width="1200" height="800" fill="url(#sky)"/>
  <circle cx="1000" cy="140" r="64" fill="#FFD166" fill-opacity="0.9"/>
  <path d="M0 560C160 430 300 420 450 520C610 630 760 640 930 500C1010 445 1080 420 1200 438V800H0V560Z" fill="url(#hill)"/>
  <path d="M0 620C140 520 290 550 420 635C540 715 700 680 840 590C980 500 1090 485 1200 510V800H0V620Z" fill="#2C8A5C" fill-opacity="0.88"/>
  <rect x="55" y="55" width="1090" height="690" rx="34" fill="white" fill-opacity="0.14" stroke="white" stroke-opacity="0.55"/>
  <text x="600" y="390" text-anchor="middle" font-family="Arial, Helvetica, sans-serif" font-size="58" font-weight="700" fill="#0F172A">Davao Destination</text>
  <text x="600" y="450" text-anchor="middle" font-family="Arial, Helvetica, sans-serif" font-size="28" fill="#153B34">Local image placeholder</text>
</svg>
